<svg width="276" height="251" viewBox="0 0 276 251" fill="none" xmlns="http://www.w3.org/2000/svg">
<g clip-path="url(#clip0_59_294)">
<path d="M179.668 248.193L127.965 147.115C127.95 146.868 127.879 146.628 127.759 146.417C127.639 146.207 127.472 146.031 127.275 145.907C127.048 145.766 126.789 145.698 126.528 145.711C126.519 145.711 126.511 145.711 126.503 145.711C126.494 145.711 126.486 145.711 126.477 145.711C126.124 145.693 125.777 145.824 125.511 146.077C125.244 146.33 125.078 146.684 125.047 147.067L70.2491 248.193C70.1577 248.365 70.0984 248.554 70.0745 248.75C70.0506 248.947 70.0626 249.146 70.1098 249.337C70.157 249.528 70.2385 249.708 70.3496 249.865C70.4607 250.022 70.5993 250.154 70.7574 250.253C70.9155 250.352 71.09 250.416 71.271 250.442C71.452 250.467 71.636 250.454 71.8123 250.403C71.9886 250.352 72.1539 250.263 72.2987 250.143C72.4435 250.022 72.565 249.872 72.6562 249.7L126.466 150.397L177.261 249.7C177.352 249.872 177.473 250.022 177.618 250.143C177.763 250.263 177.928 250.352 178.104 250.403C178.281 250.454 178.465 250.467 178.646 250.442C178.827 250.416 179.001 250.352 179.159 250.253C179.317 250.154 179.456 250.022 179.567 249.865C179.678 249.708 179.76 249.528 179.807 249.337C179.854 249.146 179.866 248.947 179.842 248.75C179.818 248.554 179.759 248.365 179.668 248.193Z" fill="#3F3D56"/>
<path d="M117.935 230.851L123.779 229.397L121.389 204.264L112.763 206.409L117.935 230.851Z" fill="#FFB6B6"/>
<path d="M122.454 218.709L114.137 220.778L111.478 215.143L111.327 214.943C110.147 213.373 109.493 211.417 109.469 209.392L102.557 189.565L101.992 189.273C101.554 189.048 101.166 188.724 100.854 188.323C100.541 187.922 100.311 187.453 100.179 186.948C100.047 186.443 100.016 185.913 100.087 185.394C100.159 184.874 100.332 184.378 100.595 183.937L99.8629 181.838L79.2136 181.879L79.193 181.873L53.8358 174.16L56.4983 156.95L63.6312 161.815C65.9816 161.65 106.244 158.97 109.964 168.754C113.276 177.466 118.049 192.351 121.47 203.304C121.641 203.796 121.853 204.269 122.104 204.719C122.636 205.608 122.948 206.63 123.01 207.688C123.051 208.148 123.132 208.602 123.252 209.046C124.674 213.655 122.508 218.588 122.486 218.637L122.454 218.709Z" fill="#2F2E41"/>
<path d="M115.961 228.75L117.861 228.277L124.587 223.161L129.255 225.442L129.256 225.442C131.502 224.883 133.862 225.315 135.815 226.643C137.769 227.97 139.156 230.085 139.671 232.521L139.734 232.82L117.968 238.235L115.961 228.75Z" fill="#2F2E41"/>
<path d="M29.6745 229.314C30.2686 222.301 34.0569 215.28 40.1329 212.793C37.9231 220.067 38.1573 227.954 40.7939 235.058C41.82 237.794 43.2239 240.721 42.4186 243.543C41.9175 245.298 40.6053 246.674 39.1192 247.557C37.6329 248.44 35.9679 248.895 34.3237 249.34L34.0065 249.644C31.1874 243.3 29.0803 236.327 29.6745 229.314Z" fill="#F0F0F0"/>
<path d="M40.1978 212.923C36.749 217.395 34.6871 222.93 34.305 228.745C34.2023 229.995 34.2819 231.254 34.541 232.478C34.8288 233.66 35.4035 234.738 36.2053 235.598C36.9381 236.417 37.775 237.162 38.3115 238.16C38.5791 238.675 38.7433 239.245 38.7933 239.834C38.8434 240.422 38.7781 241.016 38.6017 241.575C38.1958 242.981 37.3482 244.145 36.4827 245.252C35.5218 246.482 34.5058 247.742 34.1292 249.34C34.0836 249.534 33.8091 249.446 33.8547 249.253C34.5099 246.472 36.9302 244.821 38.0331 242.298C38.5477 241.121 38.7383 239.768 38.1875 238.564C37.7058 237.511 36.8433 236.741 36.0948 235.919C35.3013 235.093 34.7066 234.067 34.3626 232.934C34.0469 231.729 33.9227 230.475 33.9952 229.224C34.1169 226.407 34.6465 223.628 35.5644 220.989C36.5965 217.971 38.0973 215.167 40.0016 212.697C40.1195 212.544 40.3149 212.772 40.1978 212.923Z" fill="white"/>
<path d="M34.3264 226.865C33.4355 226.663 32.6398 226.124 32.0813 225.345C31.5229 224.565 31.2382 223.596 31.278 222.61C31.28 222.57 31.2962 222.532 31.3234 222.505C31.3505 222.477 31.3865 222.462 31.4236 222.463C31.4607 222.464 31.4961 222.48 31.5223 222.508C31.5486 222.537 31.5636 222.575 31.5643 222.615C31.5256 223.534 31.791 224.436 32.3123 225.161C32.8337 225.886 33.5767 226.384 34.4074 226.567C34.5879 226.607 34.5058 226.904 34.3264 226.865Z" fill="white"/>
<path d="M35.7834 235.236C37.3494 234.147 38.4793 232.458 38.9476 230.505C38.9939 230.312 39.2684 230.4 39.2222 230.593C38.7313 232.624 37.5522 234.379 35.9203 235.509C35.7646 235.617 35.6286 235.343 35.7834 235.236Z" fill="white"/>
<path d="M36.8707 218.256C37.2004 218.412 37.5607 218.476 37.9192 218.444C38.2777 218.412 38.6232 218.284 38.9246 218.071C39.0789 217.961 39.2148 218.234 39.0615 218.343C38.7274 218.577 38.3457 218.718 37.9497 218.755C37.5537 218.791 37.1554 218.722 36.7897 218.553C36.754 218.541 36.7241 218.514 36.7062 218.478C36.6882 218.442 36.6835 218.4 36.6929 218.361C36.7038 218.321 36.7286 218.288 36.7619 218.269C36.7952 218.249 36.8343 218.244 36.8707 218.256Z" fill="white"/>
<path d="M59.2282 224.617C59.1336 224.688 59.0391 224.76 58.9445 224.834C57.6781 225.801 56.4862 226.879 55.3806 228.056C55.2938 228.145 55.2071 228.237 55.1228 228.329C52.4872 231.196 50.3653 234.567 48.8648 238.273C48.269 239.749 47.7776 241.271 47.3948 242.827C46.8662 244.976 46.4508 247.352 45.3313 249.134C45.2165 249.321 45.091 249.501 44.9557 249.671L34.3726 250.04C34.3482 250.028 34.3237 250.018 34.2992 250.006L33.8772 250.041C33.8918 249.96 33.9085 249.875 33.9231 249.793C33.9314 249.746 33.942 249.698 33.9503 249.651C33.9565 249.619 33.9629 249.588 33.9669 249.559C33.969 249.548 33.9711 249.538 33.9732 249.53C33.9772 249.501 33.9838 249.474 33.9878 249.448C34.0802 248.976 34.1757 248.503 34.2745 248.031C34.2744 248.028 34.2744 248.028 34.2767 248.025C34.9977 244.416 36.111 240.913 37.5931 237.589C37.6386 237.49 37.6839 237.389 37.7342 237.29C38.4225 235.818 39.2207 234.408 40.1207 233.077C40.6157 232.349 41.1444 231.649 41.7046 230.98C43.1553 229.253 44.8475 227.784 46.7191 226.628C50.4505 224.322 54.8202 223.337 58.9161 224.523C59.0208 224.553 59.1233 224.584 59.2282 224.617Z" fill="#F0F0F0"/>
<path d="M59.2087 224.763C53.9724 226.082 49.2523 229.156 45.719 233.549C44.9428 234.48 44.3069 235.537 43.8345 236.683C43.4077 237.816 43.2682 239.051 43.4307 240.262C43.5612 241.393 43.8157 242.535 43.6902 243.681C43.6179 244.267 43.4323 244.83 43.1454 245.333C42.8585 245.835 42.4768 246.267 42.0255 246.598C40.9206 247.456 39.5975 247.832 38.2917 248.151C36.842 248.505 35.3309 248.848 34.1427 249.878C33.9988 250.003 33.8285 249.754 33.9723 249.629C36.0396 247.836 38.8888 248.098 41.1701 246.804C42.2346 246.2 43.1377 245.245 43.3667 243.923C43.5669 242.768 43.3055 241.591 43.1641 240.446C42.9897 239.267 43.084 238.061 43.4388 236.931C43.8558 235.763 44.4531 234.68 45.2051 233.729C46.8666 231.559 48.8325 229.686 51.0306 228.178C53.5306 226.443 56.286 225.183 59.1776 224.455C59.3566 224.41 59.3865 224.719 59.2087 224.763Z" fill="white"/>
<path d="M46.7799 232.062C46.1807 231.319 45.8445 230.369 45.8314 229.382C45.8182 228.395 46.1291 227.436 46.7083 226.674C46.826 226.521 47.0517 226.712 46.9338 226.866C46.3932 227.573 46.1038 228.467 46.1177 229.386C46.1316 230.305 46.4481 231.189 47.0099 231.877C47.1318 232.026 46.9011 232.21 46.7799 232.062Z" fill="white"/>
<path d="M43.2948 239.697C45.1501 239.85 46.9902 239.238 48.4483 237.985C48.5927 237.861 48.763 238.11 48.6188 238.234C47.0992 239.536 45.183 240.167 43.2527 240.004C43.0687 239.988 43.1118 239.681 43.2948 239.697Z" fill="white"/>
<path d="M53.5914 226.849C53.7681 227.189 54.0198 227.476 54.3239 227.684C54.6281 227.892 54.9752 228.015 55.3341 228.042C55.5181 228.055 55.4749 228.362 55.292 228.349C54.8956 228.317 54.5124 228.181 54.1759 227.952C53.8394 227.722 53.5598 227.407 53.3615 227.034C53.3401 227 53.3312 226.959 53.3367 226.919C53.3423 226.878 53.3617 226.842 53.3912 226.817C53.4218 226.792 53.4599 226.782 53.4974 226.788C53.5349 226.794 53.5687 226.816 53.5914 226.849Z" fill="white"/>
<path d="M202.823 229.314C202.229 222.301 198.441 215.28 192.365 212.793C194.574 220.067 194.34 227.954 191.704 235.058C190.678 237.794 189.274 240.721 190.079 243.543C190.58 245.298 191.892 246.674 193.378 247.557C194.865 248.44 196.53 248.895 198.174 249.34L198.491 249.644C201.31 243.3 203.417 236.327 202.823 229.314Z" fill="#F0F0F0"/>
<path d="M192.3 212.923C195.749 217.395 197.81 222.93 198.192 228.745C198.295 229.995 198.216 231.254 197.957 232.478C197.669 233.66 197.094 234.738 196.292 235.598C195.559 236.417 194.723 237.162 194.186 238.16C193.918 238.675 193.754 239.245 193.704 239.834C193.654 240.422 193.719 241.016 193.896 241.575C194.302 242.981 195.149 244.145 196.015 245.252C196.976 246.482 197.992 247.742 198.368 249.34C198.414 249.534 198.688 249.446 198.643 249.253C197.988 246.472 195.567 244.821 194.464 242.298C193.95 241.121 193.759 239.768 194.31 238.564C194.792 237.511 195.654 236.741 196.403 235.919C197.196 235.093 197.791 234.067 198.135 232.934C198.451 231.729 198.575 230.475 198.502 229.224C198.381 226.407 197.851 223.628 196.933 220.989C195.901 217.971 194.4 215.167 192.496 212.697C192.378 212.544 192.183 212.772 192.3 212.923Z" fill="white"/>
<path d="M198.171 226.865C199.062 226.663 199.858 226.124 200.416 225.345C200.975 224.565 201.259 223.596 201.22 222.61C201.218 222.57 201.201 222.532 201.174 222.504C201.147 222.477 201.111 222.462 201.074 222.463C201.037 222.464 201.001 222.48 200.975 222.508C200.949 222.537 200.934 222.575 200.933 222.615C200.972 223.534 200.707 224.436 200.185 225.161C199.664 225.886 198.921 226.384 198.09 226.567C197.91 226.607 197.992 226.904 198.171 226.865Z" fill="white"/>
<path d="M196.714 235.236C195.148 234.147 194.018 232.458 193.55 230.505C193.504 230.312 193.229 230.4 193.275 230.593C193.766 232.624 194.945 234.379 196.577 235.509C196.733 235.617 196.869 235.343 196.714 235.236Z" fill="white"/>
<path d="M195.627 218.256C195.297 218.412 194.937 218.476 194.578 218.444C194.22 218.412 193.874 218.284 193.573 218.071C193.419 217.961 193.283 218.234 193.436 218.343C193.77 218.577 194.152 218.718 194.548 218.755C194.944 218.791 195.342 218.722 195.708 218.553C195.743 218.541 195.773 218.514 195.791 218.478C195.809 218.442 195.814 218.4 195.805 218.361C195.794 218.321 195.769 218.288 195.736 218.269C195.702 218.249 195.663 218.244 195.627 218.256Z" fill="white"/>
<path d="M173.269 224.617C173.364 224.688 173.458 224.76 173.553 224.834C174.819 225.801 176.011 226.879 177.117 228.056C177.204 228.145 177.29 228.237 177.375 228.329C180.01 231.196 182.132 234.567 183.633 238.273C184.228 239.749 184.72 241.271 185.103 242.827C185.631 244.976 186.047 247.352 187.166 249.134C187.281 249.321 187.407 249.501 187.542 249.671L198.125 250.04C198.149 250.028 198.174 250.018 198.198 250.006L198.62 250.041C198.606 249.96 198.589 249.875 198.574 249.793C198.566 249.746 198.555 249.698 198.547 249.651C198.541 249.619 198.535 249.588 198.531 249.559C198.529 249.548 198.526 249.538 198.524 249.53C198.52 249.501 198.514 249.474 198.51 249.448C198.417 248.976 198.322 248.503 198.223 248.031C198.223 248.028 198.223 248.028 198.221 248.025C197.5 244.416 196.387 240.913 194.904 237.589C194.859 237.49 194.814 237.389 194.763 237.29C194.075 235.818 193.277 234.408 192.377 233.077C191.882 232.349 191.353 231.649 190.793 230.98C189.342 229.253 187.65 227.784 185.778 226.628C182.047 224.322 177.677 223.337 173.581 224.523C173.477 224.553 173.374 224.584 173.269 224.617Z" fill="#F0F0F0"/>
<path d="M173.289 224.763C178.525 226.082 183.245 229.156 186.779 233.549C187.555 234.48 188.191 235.537 188.663 236.683C189.09 237.816 189.229 239.051 189.067 240.261C188.936 241.393 188.682 242.535 188.807 243.681C188.88 244.267 189.065 244.83 189.352 245.333C189.639 245.835 190.021 246.267 190.472 246.598C191.577 247.456 192.9 247.832 194.206 248.151C195.655 248.505 197.167 248.848 198.355 249.878C198.499 250.003 198.669 249.754 198.525 249.629C196.458 247.836 193.609 248.098 191.327 246.804C190.263 246.2 189.36 245.245 189.131 243.923C188.931 242.768 189.192 241.591 189.333 240.446C189.508 239.267 189.413 238.061 189.059 236.931C188.642 235.763 188.044 234.68 187.292 233.729C185.631 231.559 183.665 229.686 181.467 228.178C178.967 226.443 176.212 225.183 173.32 224.455C173.141 224.41 173.111 224.719 173.289 224.763Z" fill="white"/>
<path d="M185.718 232.062C186.317 231.319 186.653 230.369 186.666 229.382C186.679 228.395 186.368 227.436 185.789 226.674C185.672 226.521 185.446 226.712 185.564 226.866C186.104 227.573 186.394 228.467 186.38 229.386C186.366 230.305 186.049 231.189 185.488 231.877C185.366 232.026 185.596 232.21 185.718 232.062Z" fill="white"/>
<path d="M189.203 239.697C187.347 239.85 185.507 239.238 184.049 237.985C183.905 237.861 183.735 238.11 183.879 238.234C185.398 239.536 187.314 240.167 189.245 240.004C189.429 239.988 189.386 239.681 189.203 239.697Z" fill="white"/>
<path d="M178.906 226.849C178.729 227.189 178.478 227.476 178.174 227.684C177.869 227.892 177.522 228.015 177.163 228.042C176.979 228.055 177.023 228.362 177.206 228.349C177.602 228.317 177.985 228.181 178.322 227.952C178.658 227.722 178.938 227.407 179.136 227.034C179.157 227 179.166 226.959 179.161 226.919C179.155 226.878 179.136 226.842 179.106 226.817C179.076 226.792 179.038 226.782 179 226.788C178.963 226.794 178.929 226.816 178.906 226.849Z" fill="white"/>
<path d="M276 250.602C276 250.707 275.961 250.808 275.892 250.883C275.823 250.958 275.73 251 275.632 251H0.367622C0.270151 251 0.176671 250.958 0.107749 250.883C0.0388264 250.809 0.000106812 250.707 0.000106812 250.602C0.000106812 250.496 0.0388264 250.394 0.107749 250.32C0.176671 250.245 0.270151 250.203 0.367622 250.203H275.632C275.73 250.203 275.823 250.245 275.892 250.32C275.961 250.395 276 250.496 276 250.602Z" fill="#3F3D56"/>
<path d="M177.306 96.4445C178.074 96.4445 178.696 95.7698 178.696 94.9375C178.696 94.1053 178.074 93.4306 177.306 93.4306C176.538 93.4306 175.916 94.1053 175.916 94.9375C175.916 95.7698 176.538 96.4445 177.306 96.4445Z" fill="#3F3D56"/>
<path d="M159.903 106.545L178.64 93.7814C178.809 93.6659 178.998 93.5889 179.196 93.555C179.394 93.521 179.596 93.5309 179.79 93.584C179.984 93.6371 180.166 93.7323 180.325 93.8638C180.485 93.9954 180.618 94.1605 180.716 94.3494C180.815 94.5382 180.877 94.7468 180.9 94.9625C180.922 95.1782 180.904 95.3965 180.846 95.6044C180.788 95.8122 180.692 96.0052 180.564 96.1717C180.435 96.3382 180.277 96.4747 180.099 96.5731L160.374 107.445C160.264 107.505 160.138 107.517 160.02 107.479C159.902 107.441 159.803 107.355 159.742 107.239C159.682 107.123 159.665 106.986 159.695 106.857C159.725 106.728 159.799 106.616 159.903 106.545Z" fill="#E4E4E4"/>
<path d="M122.315 134.028C122.167 133.79 122.09 133.509 122.094 133.222C122.098 132.936 122.182 132.657 122.336 132.424C122.653 131.964 123.076 131.601 123.561 131.371C124.564 130.818 125.644 130.448 126.757 130.276C127.604 130.145 128.527 130.104 129.184 129.51C129.836 128.92 130.2 127.818 131.045 127.726C131.861 127.637 132.489 128.606 133.309 128.666C134.318 128.741 134.979 127.459 135.962 127.197C136.62 127.021 137.296 127.331 137.913 127.635L141.615 129.456L143.512 130.389C144.175 130.715 144.923 131.154 145.048 131.932C145.22 133 144.124 133.754 143.187 134.133C136.498 136.81 129.147 136.811 122.457 134.136" fill="#81CF01"/>
<path d="M127.892 153.708C154.756 153.708 176.534 150.335 176.534 146.174C176.534 142.012 154.756 138.639 127.892 138.639C101.028 138.639 79.2507 142.012 79.2507 146.174C79.2507 150.335 101.028 153.708 127.892 153.708Z" fill="#3F3D56"/>
<path d="M226.565 192.889H193.211C191.676 192.889 190.431 194.238 190.431 195.903C190.431 197.567 191.676 198.917 193.211 198.917H226.565C228.1 198.917 229.345 197.567 229.345 195.903C229.345 194.238 228.1 192.889 226.565 192.889Z" fill="#3F3D56"/>
<path d="M242.73 139.155L231.713 195.899L234.583 210.423L239.999 237.833V250.153C240 250.17 239.999 250.186 239.996 250.203C239.995 250.475 239.949 250.745 239.86 251H235.506C235.418 250.745 235.372 250.475 235.37 250.203C235.367 250.186 235.366 250.17 235.367 250.153V238.362L230.45 213.484L229.456 208.461L227.532 198.726L226.976 195.906V195.903L227.526 193.076L227.949 190.896L238.196 138.123C238.258 137.8 238.378 137.494 238.55 137.221C238.722 136.948 238.941 136.715 239.196 136.534C239.45 136.354 239.736 136.229 240.035 136.168C240.334 136.107 240.641 136.111 240.939 136.179C241.237 136.246 241.519 136.377 241.771 136.563C242.022 136.75 242.237 136.988 242.403 137.264C242.569 137.541 242.684 137.85 242.74 138.174C242.796 138.498 242.792 138.832 242.73 139.155Z" fill="#3F3D56"/>
<path d="M195.527 195.903V250.153C195.528 250.17 195.527 250.186 195.524 250.203C195.522 250.475 195.476 250.745 195.388 251H191.034C190.946 250.745 190.9 250.475 190.898 250.203C190.895 250.186 190.894 250.17 190.895 250.153V195.903C190.895 195.237 191.139 194.598 191.573 194.127C192.007 193.656 192.597 193.391 193.211 193.391C193.825 193.391 194.414 193.656 194.849 194.127C195.283 194.598 195.527 195.237 195.527 195.903Z" fill="#3F3D56"/>
<path d="M198.77 186.861H221.006C223.218 186.861 225.339 187.814 226.902 189.509C228.466 191.205 229.345 193.505 229.345 195.903H190.431C190.431 193.505 191.31 191.205 192.874 189.509C194.438 187.814 196.558 186.861 198.77 186.861Z" fill="#3F3D56"/>
<path d="M232.124 213.484H193.211C192.597 213.484 192.008 213.219 191.573 212.748C191.139 212.277 190.895 211.638 190.895 210.972C190.895 210.306 191.139 209.667 191.573 209.196C192.008 208.725 192.597 208.461 193.211 208.461H232.124C232.739 208.461 233.328 208.725 233.762 209.196C234.196 209.667 234.44 210.306 234.44 210.972C234.44 211.638 234.196 212.277 233.762 212.748C233.328 213.219 232.739 213.484 232.124 213.484Z" fill="#3F3D56"/>
<path d="M51.1186 199.008H90.3688C91.9039 199.008 93.1483 197.659 93.1483 195.994V195.081C93.1483 193.416 91.9039 192.067 90.3688 192.067H51.1186C49.5835 192.067 48.3391 193.416 48.3391 195.081V195.994C48.3391 197.659 49.5835 199.008 51.1186 199.008Z" fill="#3F3D56"/>
<path d="M50.7144 195.578L50.004 198.753L47.3974 210.379L46.2734 215.403L41.0539 238.703V248.813C41.0553 249.308 40.9198 249.792 40.6649 250.203C40.4644 250.535 40.1919 250.809 39.8712 251H37.6043C37.2835 250.809 37.011 250.535 36.8106 250.203C36.5556 249.792 36.4201 249.308 36.4214 248.813V238.101L42.2214 212.215L45.9645 195.498L33.2714 130.113C33.2085 129.79 33.205 129.457 33.2609 129.133C33.3169 128.809 33.4312 128.5 33.5974 128.224C33.7635 127.947 33.9783 127.709 34.2294 127.523C34.4804 127.337 34.7629 127.206 35.0606 127.138C35.3582 127.071 35.6653 127.067 35.9643 127.128C36.2632 127.189 36.5481 127.313 36.8027 127.494C37.0573 127.674 37.2766 127.907 37.4481 128.18C37.6195 128.452 37.7398 128.759 37.802 129.082L49.5347 189.503L50.0751 192.289L50.705 195.538L50.7144 195.578Z" fill="#3F3D56"/>
<path d="M92.2651 195.538V248.813C92.2665 249.308 92.1309 249.792 91.8759 250.203C91.6755 250.535 91.4029 250.809 91.0822 251H88.8123C88.4931 250.808 88.2217 250.534 88.0216 250.203C87.7667 249.792 87.6312 249.308 87.6326 248.813V195.538C87.6326 194.872 87.8766 194.233 88.311 193.762C88.7454 193.291 89.3345 193.026 89.9488 193.026C90.5631 193.026 91.1523 193.291 91.5867 193.762C92.0211 194.233 92.2651 194.872 92.2651 195.538Z" fill="#3F3D56"/>
<path d="M93.1483 195.537H48.3391V194.168C48.3391 192.98 48.5548 191.804 48.9738 190.707C49.3929 189.61 50.0071 188.614 50.7814 187.774C51.5557 186.934 52.4749 186.268 53.4866 185.814C54.4983 185.36 55.5826 185.126 56.6777 185.126H84.8098C87.0213 185.126 89.1422 186.078 90.706 187.774C92.2698 189.47 93.1483 191.77 93.1483 194.168L93.1483 195.537Z" fill="#3F3D56"/>
<path d="M89.9477 215.402H45.1384C44.5241 215.402 43.935 215.137 43.5006 214.666C43.0662 214.195 42.8222 213.556 42.8222 212.89C42.8222 212.224 43.0662 211.585 43.5006 211.114C43.935 210.643 44.5241 210.378 45.1384 210.378H89.9477C90.562 210.378 91.1512 210.643 91.5855 211.114C92.0199 211.585 92.264 212.224 92.264 212.89C92.264 213.556 92.0199 214.195 91.5855 214.666C91.1512 215.137 90.562 215.402 89.9477 215.402Z" fill="#3F3D56"/>
<path d="M147.535 237.311L142.666 234.786L149.354 212.721L156.539 216.447L147.535 237.311Z" fill="#9E616A"/>
<path d="M180.527 235.312L175.292 236.713L167.708 214.997L175.434 212.93L180.527 235.312Z" fill="#9E616A"/>
<path d="M160.463 141.407C161.158 142.63 162.265 143.51 163.55 143.86C164.834 144.209 166.194 144 167.338 143.278C167.568 143.127 167.787 142.955 167.991 142.765L183.382 152.342L182.713 142.511L168.2 134.923C167.41 134.063 166.38 133.511 165.27 133.355C164.16 133.198 163.033 133.445 162.067 134.057C161.51 134.419 161.026 134.899 160.643 135.467C160.26 136.035 159.986 136.681 159.837 137.366C159.687 138.051 159.666 138.761 159.773 139.455C159.881 140.149 160.115 140.813 160.463 141.407Z" fill="#9E616A"/>
<path d="M176.765 148.736L179.486 150.534L191.704 158.613C192.507 159.158 193.401 159.525 194.334 159.695C195.268 159.865 196.223 159.833 197.146 159.602C198.068 159.371 198.94 158.946 199.71 158.349C200.481 157.753 201.136 156.998 201.637 156.127C202.542 154.511 202.862 152.588 202.536 150.731L197.105 121.311C196.904 120.157 196.476 119.062 195.849 118.103C195.223 117.144 194.413 116.343 193.474 115.755C192.536 115.167 191.492 114.806 190.413 114.695C189.334 114.585 188.245 114.729 187.222 115.117C185.502 115.772 184.078 117.113 183.237 118.867C182.397 120.621 182.205 122.656 182.7 124.559L188.378 145.437L179.674 141.037L176.765 148.736Z" fill="#E6E6E6"/>
<path d="M170.332 229.226L161.955 211.009L161.956 210.968L162.784 177.555C162.794 177.258 162.816 176.959 162.849 176.666C162.996 175.326 163.386 174.031 163.998 172.857C164.611 171.682 165.433 170.652 166.416 169.826C167.358 169.027 168.437 168.439 169.59 168.097C170.744 167.755 171.949 167.665 173.134 167.833L197.088 171.194L197.918 167.511L198.073 167.45L221.024 158.33L221.156 158.563C224.162 163.866 226.263 174.46 226.836 177.58L226.844 177.625C226.856 177.691 226.863 177.731 226.866 177.742C228.047 183.067 223.165 191.888 218.302 193.214C208.058 196.045 198.896 193.836 188.288 191.279C184.483 190.361 180.552 189.413 176.222 188.594L176.35 191.357C176.456 193.484 176.863 195.581 177.559 197.573C178.331 200.025 178.941 201.962 177.651 206L177.027 207.954C177.351 208.924 177.462 209.962 177.352 210.986C177.243 212.011 176.915 212.994 176.396 213.857L176.27 214.065L181.794 229.223L170.332 229.226Z" fill="#2F2E41"/>
<path d="M156.569 221.17L146.58 220.163L150.118 207.891C150.849 199.878 152.689 192.03 155.577 184.612L160.404 172.207C160.415 171.931 160.437 171.653 160.468 171.381C160.614 170.041 161.004 168.747 161.617 167.572C162.229 166.398 163.051 165.367 164.034 164.541C164.976 163.742 166.055 163.155 167.209 162.813C168.362 162.471 169.567 162.381 170.752 162.549L194.67 165.905L195.712 156.425L218.669 153.094L218.774 153.279C222.787 160.358 225.334 165.9 226.791 170.72C226.865 170.966 226.93 171.217 226.985 171.467C228.175 176.828 225.205 182.263 220.365 183.582C208.032 186.992 193.201 186.897 173.702 183.283L164.264 207.635C163.363 209.961 162.246 212.182 160.931 214.264L156.569 221.17Z" fill="#2F2E41"/>
<path d="M191.413 98.2324C197.804 98.2324 202.984 92.4897 202.984 85.4058C202.984 78.3219 197.804 72.5793 191.413 72.5793C185.022 72.5793 179.842 78.3219 179.842 85.4058C179.842 92.4897 185.022 98.2324 191.413 98.2324Z" fill="#9E616A"/>
<path d="M194.754 166.353L193.094 159.904L192.685 156.722L190.299 156.809L185.616 145.087L183.797 141.996C183.426 141.572 183.09 141.165 182.788 140.774C180.893 138.451 179.373 135.797 178.293 132.925C177.536 130.862 177.092 128.679 176.977 126.462C176.638 119.913 179.184 112.983 184.762 105.28C184.67 105.007 184.609 104.723 184.58 104.435C184.48 103.499 184.725 102.558 185.262 101.817C185.799 101.077 186.583 100.595 187.446 100.479L192.825 99.8236C193.244 99.7722 193.667 99.8116 194.071 99.9394C194.476 100.067 194.852 100.281 195.18 100.568C195.521 100.865 195.805 101.233 196.014 101.65C196.224 102.067 196.354 102.525 196.399 102.998C196.471 103.728 196.338 104.466 196.018 105.114C198.761 105.491 201.344 106.718 203.459 108.648C205.574 110.578 207.131 113.128 207.942 115.993C211.161 122.51 213.727 129.381 215.596 136.49C215.964 137.882 215.8 139.317 215.641 140.705C215.495 141.986 215.343 143.311 215.598 144.632C215.857 145.976 216.481 147.323 217.14 148.75C217.896 150.384 218.678 152.074 218.889 153.797L218.904 153.918L194.754 166.353Z" fill="#E4E4E4"/>
<path opacity="0.2" d="M178.436 132.862C179.511 135.717 181.023 138.356 182.907 140.666C183.229 141.084 183.57 141.495 183.927 141.906L185.757 145.02C192.505 139.536 197.972 117.943 197.972 117.943L190.359 116.337L178.436 132.862Z" fill="black"/>
<path d="M173.827 99.4307C174.494 100.672 174.687 102.147 174.366 103.541C174.046 104.935 173.236 106.138 172.109 106.895C171.878 107.045 171.636 107.174 171.385 107.28L171.924 126.514L164.243 121.271L164.908 103.81C164.582 102.648 164.619 101.401 165.014 100.265C165.409 99.1281 166.14 98.1652 167.093 97.5265C167.648 97.1624 168.265 96.9227 168.907 96.8214C169.549 96.7202 170.203 96.7594 170.831 96.9369C171.459 97.1144 172.047 97.4266 172.562 97.8549C173.076 98.2832 173.507 98.819 173.827 99.4307Z" fill="#9E616A"/>
<path d="M172.599 119.254L164.152 120.556L164.515 139.524C164.536 140.877 164.876 142.202 165.502 143.373C166.128 144.543 167.02 145.521 168.093 146.212C169.404 147.048 170.93 147.4 172.441 147.214C173.952 147.028 175.366 146.314 176.47 145.181L196.413 124.381C197.817 122.938 198.656 120.966 198.76 118.872C198.864 116.778 198.223 114.72 196.971 113.122C196.351 112.327 195.59 111.674 194.733 111.204C193.876 110.733 192.941 110.454 191.982 110.383C191.024 110.312 190.062 110.45 189.154 110.789C188.246 111.129 187.41 111.663 186.696 112.36C186.499 112.551 186.312 112.753 186.135 112.966L172.966 129.392L172.599 119.254Z" fill="#E6E6E6"/>
<path d="M101.948 242.976L107.944 242.975L110.796 217.898L101.947 217.899L101.948 242.976Z" fill="#FFB6B6"/>
<path d="M67.9626 98.6047C74.5717 98.6047 79.9295 92.7952 79.9295 85.6288C79.9295 78.4624 74.5717 72.6528 67.9626 72.6528C61.3535 72.6528 55.9957 78.4624 55.9957 85.6288C55.9957 92.7952 61.3535 98.6047 67.9626 98.6047Z" fill="#FFB6B6"/>
<path d="M109.9 235.251H101.41L99.2452 232.105L98.6593 229.14L98.155 228.611C97.4709 227.899 97.0286 226.958 96.8998 225.939C96.771 224.92 96.9632 223.884 97.4453 222.999L91.2918 191.868C89.6803 191.714 71.505 189.952 58.8708 187.528C55.6374 186.907 53.113 185.203 51.3675 182.462C47.0785 175.728 48.9158 164.831 48.9348 164.722L48.956 164.6L49.0693 164.586L78.58 160.995L78.6197 161.015C79.599 161.518 102.647 173.383 106.414 177.467C108.115 179.311 111.909 190.268 112.759 201.917C112.911 204.004 112.363 206.129 111.834 208.185C111.338 210.108 110.826 212.096 110.927 213.976C111.083 216.877 111.231 219.92 111.367 223.02C111.389 223.514 111.732 224.025 112.064 224.519C112.411 225.036 112.738 225.524 112.759 226.034C112.961 230.985 109.977 235.146 109.947 235.187L109.9 235.251Z" fill="#2F2E41"/>
<path d="M111.834 120.19C111.191 120 110.517 119.964 109.86 120.086C109.204 120.209 108.579 120.486 108.032 120.898C107.484 121.31 107.027 121.847 106.692 122.471C106.356 123.096 106.152 123.793 106.091 124.512L96.1483 127.882L96.5631 134.933L110.543 129.961C111.665 129.99 112.757 129.572 113.614 128.787C114.471 128.001 115.032 126.901 115.191 125.697C115.35 124.493 115.096 123.267 114.477 122.252C113.858 121.237 112.918 120.503 111.834 120.19Z" fill="#FFB6B6"/>
<path d="M105.346 131.859L97.9149 134.908L97.7249 135.308C97.2693 136.266 96.4813 136.989 95.5342 137.318C94.5871 137.646 93.5584 137.553 92.6746 137.059L75.9714 143.914C75.9714 143.914 68.5121 135.82 63.2014 128.596L65.0113 116.525C65.4306 113.724 66.3216 111.031 67.6398 108.58C78.5313 111.169 84.7833 127.678 84.7833 127.678L104.412 123.617L105.346 131.859Z" fill="#81CF01"/>
<path d="M66.262 97.9111C63.2661 98.7885 59.9633 97.622 57.6253 95.4094C55.2873 93.1968 53.8247 90.0616 52.982 86.8231C52.3649 84.4513 52.0722 81.8186 53.0462 79.5919C54.0201 77.3653 56.6413 75.863 58.6635 76.9877C57.416 75.4117 58.0392 72.8051 59.4962 71.4569C60.9532 70.1087 62.9539 69.7222 64.8593 69.5109C67.6247 69.2042 70.4812 69.1699 73.1126 70.1413C75.7441 71.1128 78.135 73.2366 78.9586 76.1155C79.7997 76.5401 80.747 76.6503 81.652 76.4287C82.5571 76.2071 83.3688 75.6663 83.9601 74.891C84.1125 75.7815 83.9901 76.7016 83.6117 77.509C83.2333 78.3164 82.6201 78.9661 81.8669 79.3576L85.8988 77.9402C86.5922 79.5317 85.3772 81.5013 83.8234 82.011C82.2697 82.5206 80.5925 81.9636 79.1181 81.2273C77.6437 80.491 76.2149 79.5601 74.6133 79.2729C73.0118 78.9858 71.1306 79.5438 70.3898 81.1099C70.0018 81.9302 69.9816 82.8909 69.7563 83.7799C69.5311 84.6689 68.9604 85.5905 68.1129 85.6632C67.5774 85.7092 67.0531 85.3999 66.5191 85.4632C65.8571 85.5416 65.3504 86.1918 65.1741 86.8881C65.0412 87.5977 65.0395 88.3289 65.1693 89.0392L66.1935 97.5277" fill="#2F2E41"/>
<path d="M51.4363 184.013C51.434 184.013 51.4318 184.013 51.4295 184.012L51.3349 183.995L51.3075 183.895C50.9635 182.64 50.5257 181.356 50.1023 180.114C49.4787 178.393 48.9522 176.633 48.5257 174.844C48.19 173.133 47.9572 171.4 47.8289 169.656C47.7108 168.39 47.5886 167.081 47.3809 165.793C47.2887 165.221 47.6382 164.679 47.9762 164.155C48.2895 163.669 48.5856 163.21 48.5234 162.776C48.4599 162.332 48.0059 161.844 47.5668 161.373C47.0855 160.856 46.5878 160.321 46.5173 159.759C45.558 152.083 45.1115 144.343 45.1813 136.597C45.2804 125.881 45.7271 118.577 46.5087 114.887C48.6106 104.966 58.3213 103.155 59.8413 102.932C60.0032 102.464 60.2521 102.038 60.5725 101.679C60.893 101.32 61.2781 101.037 61.7039 100.846C62.1297 100.656 62.5871 100.562 63.0476 100.572C63.5081 100.582 63.9619 100.694 64.3806 100.902L71.2803 104.326C72.6798 105.024 73.9322 106.025 74.9596 107.27C75.987 108.514 76.7675 109.974 77.2525 111.559L78.2775 114.947L78.7909 137.692L75.9457 153.708L81.5048 162.75C51.8771 180.388 51.5317 184.013 51.4363 184.013Z" fill="#81CF01"/>
<path d="M98.7213 240.449L100.671 240.449L108.282 237.093L112.361 240.448H112.361C114.667 240.448 116.877 241.441 118.507 243.209C120.138 244.976 121.053 247.374 121.054 249.873V250.179L98.7218 250.18L98.7213 240.449Z" fill="#2F2E41"/>
<path d="M114.323 136.421C113.749 136.055 113.107 135.83 112.443 135.762C111.78 135.695 111.111 135.785 110.483 136.028C109.855 136.271 109.284 136.66 108.81 137.169C108.337 137.677 107.971 138.291 107.74 138.969L97.3304 139.409L95.9278 144.667L110.726 145.488C111.802 145.834 112.958 145.74 113.974 145.223C114.99 144.707 115.796 143.804 116.239 142.687C116.682 141.569 116.732 140.314 116.379 139.159C116.026 138.004 115.295 137.03 114.323 136.421Z" fill="#FFB6B6"/>
<path d="M105.773 146.055L95.08 145.911L93.7265 145.891L71.9718 145.593C71.9718 145.593 66.0642 139.482 60.9201 133.19L61.6411 127.536C62.3444 121.986 64.8832 116.902 68.7852 113.231C76.1527 118.569 80.4254 129.135 80.4254 129.135L87.5893 132.611C92.6309 132.856 97.5437 134.416 101.91 137.159L104.266 138.639L105.773 146.055Z" fill="#81CF01"/>
<path d="M184.347 246.008L180.789 246.96L179.325 243.488L178.528 247.566L169.092 250.091C168.639 250.212 168.163 250.173 167.733 249.98C167.302 249.787 166.94 249.449 166.699 249.017C166.458 248.585 166.35 248.08 166.392 247.577C166.434 247.074 166.623 246.599 166.932 246.22L173.183 238.561L172.345 234.879L180.388 233.271L184.347 246.008Z" fill="#2F2E41"/>
<path d="M146.656 247.199L143.263 245.697L143.965 241.956L141.107 244.743L132.108 240.76C131.677 240.569 131.313 240.234 131.07 239.803C130.827 239.372 130.717 238.868 130.757 238.365C130.797 237.861 130.984 237.385 131.291 237.005C131.598 236.625 132.009 236.362 132.464 236.253L141.676 234.052L142.997 230.541L150.372 234.375L146.656 247.199Z" fill="#2F2E41"/>
<path d="M134.841 144.834H132.062C129.073 144.83 126.208 143.541 124.094 141.25C121.981 138.959 120.792 135.852 120.789 132.611V132.444H146.114V132.611C146.11 135.852 144.921 138.959 142.808 141.25C140.695 143.541 137.83 144.83 134.841 144.834Z" fill="#E4E4E4"/>
<path d="M132.062 128.09C132.062 128.923 130.672 129.597 130.672 129.597C130.672 129.597 129.282 128.923 129.282 128.09C129.282 127.258 130.672 126.583 130.672 126.583C130.672 126.583 132.062 127.258 132.062 128.09Z" fill="#3F3D56"/>
<path d="M140.4 128.09C140.4 128.923 139.01 129.597 139.01 129.597C139.01 129.597 137.621 128.923 137.621 128.09C137.621 127.258 139.01 126.583 139.01 126.583C139.01 126.583 140.4 127.258 140.4 128.09Z" fill="#3F3D56"/>
<path d="M134.841 131.104C134.841 131.936 133.451 132.611 133.451 132.611C133.451 132.611 132.062 131.936 132.062 131.104C132.062 130.272 133.451 129.597 133.451 129.597C133.451 129.597 134.841 130.272 134.841 131.104Z" fill="#3F3D56"/>
<path d="M125.113 124.909C125.88 124.909 126.503 124.234 126.503 123.402C126.503 122.57 125.88 121.895 125.113 121.895C124.345 121.895 123.723 122.57 123.723 123.402C123.723 124.234 124.345 124.909 125.113 124.909Z" fill="#3F3D56"/>
<path d="M104.901 120.163L126.82 123.446C127.018 123.476 127.209 123.549 127.38 123.66C127.552 123.772 127.701 123.921 127.818 124.096C127.935 124.272 128.018 124.472 128.062 124.684C128.106 124.896 128.11 125.115 128.074 125.328C128.037 125.542 127.962 125.745 127.851 125.926C127.74 126.107 127.597 126.261 127.429 126.38C127.262 126.499 127.074 126.58 126.877 126.618C126.68 126.656 126.477 126.65 126.282 126.601L104.728 121.181C104.608 121.151 104.504 121.072 104.436 120.96C104.369 120.849 104.344 120.713 104.366 120.582C104.388 120.451 104.456 120.335 104.556 120.257C104.656 120.179 104.779 120.145 104.901 120.163Z" fill="#E4E4E4"/>
<path d="M131.536 45.2796V0H128.757V45.2796C124.959 45.6554 121.428 47.5567 118.857 50.6104C116.285 53.6641 114.859 57.6496 114.859 61.7847V66.3055H124.587C124.587 67.9042 125.173 69.4374 126.216 70.5678C127.258 71.6983 128.672 72.3333 130.146 72.3333C131.621 72.3333 133.035 71.6983 134.077 70.5678C135.12 69.4374 135.705 67.9042 135.705 66.3055H145.434V61.7847C145.433 57.6497 144.007 53.6641 141.436 50.6104C138.865 47.5567 135.334 45.6554 131.536 45.2796Z" fill="#F0F0F0"/>
<path d="M167.322 33.9597V0H165.238V33.9597C162.389 34.2415 159.741 35.6675 157.813 37.9578C155.884 40.2481 154.815 43.2372 154.815 46.3385V49.7292H162.111C162.111 50.9282 162.55 52.0781 163.332 52.9259C164.114 53.7737 165.174 54.25 166.28 54.25C167.386 54.25 168.446 53.7737 169.228 52.9259C170.01 52.0781 170.449 50.9282 170.449 49.7292H177.746V46.3385C177.745 43.2372 176.676 40.2481 174.747 37.9578C172.819 35.6675 170.171 34.2415 167.322 33.9597Z" fill="#F0F0F0"/>
<path d="M96.9079 33.9597V0H94.8233V33.9597C91.975 34.2415 89.3267 35.6675 87.3983 37.9578C85.4698 40.2481 84.4005 43.2372 84.4001 46.3385V49.7292H91.6963C91.6963 50.9282 92.1356 52.0781 92.9175 52.9259C93.6994 53.7737 94.7599 54.25 95.8656 54.25C96.9714 54.25 98.0318 53.7737 98.8137 52.9259C99.5956 52.0781 100.035 50.9282 100.035 49.7292H107.331V46.3385C107.331 43.2372 106.261 40.2481 104.333 37.9578C102.405 35.6675 99.7562 34.2415 96.9079 33.9597Z" fill="#F0F0F0"/>
<path d="M222.376 79.843C220.41 77.3559 219.474 74.0562 217.902 71.2319C216.33 68.4077 213.593 65.88 210.703 66.5372C208.71 66.9903 207.17 68.8969 206.391 71.0226C205.611 73.1482 205.465 75.4924 205.328 77.7888C205.377 73.0695 202.509 68.4944 198.559 66.9885C194.609 65.4826 189.882 67.1624 187.4 70.9538C186.317 69.8653 184.903 69.2454 183.427 69.2118C181.95 69.1782 180.514 69.7332 179.39 70.7715C177.17 72.923 176.678 77.018 178.311 79.7624C179.944 82.5067 183.48 83.529 186.074 82.007L186.992 82.9219C186.475 84.8801 187.476 87.1932 189.16 87.9303C190.525 88.5281 192.451 88.4286 192.962 89.9817C193.319 91.067 192.652 92.2253 191.942 93.0592C191.233 93.8931 190.39 94.7543 190.305 95.9083C190.176 97.6494 191.836 98.8691 193.344 99.2365C196.981 100.122 201.017 98.2959 203.114 94.8153C203.154 94.7482 203.198 94.681 203.245 94.6137C204.422 92.9827 205.279 91.1089 205.765 89.1066C206.25 87.1043 206.354 85.0157 206.071 82.9683C205.953 82.1638 206.072 81.5655 206.583 81.375C208.794 80.5515 214.988 82.2798 216.863 83.8418C218.737 85.4038 220.239 87.4709 222.044 89.1337C223.85 90.7965 226.151 92.0791 228.444 91.6263C230.28 91.2637 231.842 89.8181 232.893 88.0746C233.944 86.331 234.548 84.2986 235.09 82.2788C231.029 84.8222 225.472 83.7575 222.376 79.843Z" fill="#2F2E41"/>
</g>
<defs>
<clipPath id="clip0_59_294">
<rect width="276" height="251" fill="white"/>
</clipPath>
</defs>
</svg>
