<svg width="33" height="34" viewBox="0 0 33 34" fill="none" xmlns="http://www.w3.org/2000/svg">
<path d="M5.5 26.9167H27.5V29.75H5.5V26.9167ZM27.5 4.25H5.5V18.4167C5.5 21.5475 7.96125 24.0833 11 24.0833H19.25C22.2887 24.0833 24.75 21.5475 24.75 18.4167V14.1667H27.5C29.0263 14.1667 30.25 12.8917 30.25 11.3333V7.08333C30.25 5.51083 29.0263 4.25 27.5 4.25ZM22 18.4167C22 19.975 20.7625 21.25 19.25 21.25H11C9.4875 21.25 8.25 19.975 8.25 18.4167V7.08333H22V18.4167ZM27.5 11.3333H24.75V7.08333H27.5V11.3333Z" fill="black"/>
</svg>
