<svg width="43" height="38" viewBox="0 0 43 38" fill="none" xmlns="http://www.w3.org/2000/svg">
<path d="M10.75 24.2819C9.97598 24.9089 9.35248 25.7069 8.98698 26.5999H34.4C34.4 22.4009 30.5515 18.9999 25.8 18.9999C22.317 18.9999 19.35 20.8239 17.9955 23.4459C17.114 23.0469 16.125 22.7999 15.05 22.7999C14.6845 22.7999 14.319 22.8379 13.975 22.8759V13.2999H17.2C18.5975 13.2999 19.78 12.5019 20.2315 11.3999H34.4V9.49991H20.2315C19.78 8.39791 18.5975 7.59991 17.2 7.59991H8.59998V8.54991H10.75V9.97491H8.59998V10.9249H10.75V12.3499H8.59998V13.2999H10.75V24.2819ZM12.9 23.1419C12.513 23.2559 12.169 23.4079 11.825 23.5979V13.2999H12.9V23.1419ZM17.2 12.3499H13.975V10.9249H17.2V12.3499ZM17.2 8.54991V9.97491H13.975V8.54991H17.2ZM11.825 8.54991H12.9V9.97491H11.825V8.54991ZM11.825 10.9249H12.9V12.3499H11.825V10.9249Z" fill="black"/>
<path d="M6.44995 28.5L8.59995 30.4H34.4L36.5499 28.5H6.44995Z" fill="black"/>
</svg>
