<svg width="33" height="34" viewBox="0 0 33 34" fill="none" xmlns="http://www.w3.org/2000/svg">
<path d="M33 2.30115C33 3.81248 30.628 4.6023 27.6924 4.6023C24.7568 4.6023 22.3848 3.81248 22.3848 2.30115C22.3848 0.789819 24.7568 0 27.6924 0C30.628 0 33 0.789819 33 2.30115ZM30.6635 1.98474C29.9003 1.73065 28.8361 1.58076 27.6924 1.58076C26.5487 1.58076 25.4844 1.73065 24.7213 1.98474C24.4215 2.08454 24.1866 2.19502 24.0331 2.30115C24.1866 2.40728 24.4215 2.51777 24.7213 2.61757C25.4844 2.87165 26.5487 3.02154 27.6924 3.02154C28.8361 3.02154 29.9003 2.87165 30.6635 2.61757C30.9632 2.51777 31.1982 2.40728 31.3517 2.30115C31.1982 2.19502 30.9632 2.08454 30.6635 1.98474ZM29.8669 11.8005C29.3091 11.9862 28.5223 12.097 27.6746 12.097C26.8271 12.097 26.0405 11.9862 25.4826 11.8005C25.2568 11.7253 25.0873 11.6434 24.9904 11.5715C24.914 11.2176 24.6064 10.953 24.2387 10.953C23.8135 10.953 23.4687 11.3068 23.4687 11.7433C23.4687 13.0522 25.3473 13.6777 27.6746 13.6777C30.0022 13.6777 31.8808 13.0523 31.8808 11.7433C31.8808 11.3068 31.5361 10.953 31.1108 10.953C30.7431 10.953 30.4355 11.2176 30.3591 11.5715C30.2622 11.6434 30.0928 11.7253 29.8669 11.8005Z" fill="black"/>
<path d="M25.0028 11.5675L23.9326 2.423C23.8819 1.98961 23.4985 1.68049 23.0763 1.73255C22.6541 1.78461 22.353 2.17817 22.4037 2.61156L23.4739 11.756C23.5246 12.1894 23.908 12.4985 24.3302 12.4465C24.7524 12.3944 25.0535 12.0009 25.0028 11.5675ZM31.4423 2.42277L30.3698 11.5672C30.319 12.0006 30.62 12.3942 31.0422 12.4464C31.4644 12.4986 31.8478 12.1896 31.8986 11.7562L32.9712 2.61171C33.022 2.17833 32.721 1.78473 32.2988 1.73255C31.8766 1.68038 31.4932 1.98938 31.4423 2.42277ZM29.5467 23.3715C29.5467 18.5529 23.3299 14.4776 15.5433 14.4776C7.75668 14.4776 1.53989 18.5529 1.53989 23.3715C1.53989 28.1902 7.75668 32.2654 15.5433 32.2654C23.3299 32.2654 29.5467 28.1902 29.5467 23.3715ZM31.0866 23.3715C31.0866 29.2497 24.0748 33.8462 15.5433 33.8462C7.01177 33.8462 0 29.2497 0 23.3715C0 17.4934 7.01177 12.8969 15.5433 12.8969C24.0748 12.8969 31.0866 17.4934 31.0866 23.3715Z" fill="black"/>
<path d="M25.3257 23.2242C25.3257 20.3315 21.0022 17.7751 15.5431 17.7751C10.0844 17.7751 5.76096 20.3315 5.76096 23.2242C5.76096 26.1169 10.0844 28.6733 15.5431 28.6733C21.0022 28.6733 25.3257 26.1169 25.3257 23.2242ZM26.8656 23.2242C26.8656 27.2234 21.7402 30.254 15.5431 30.254C9.3464 30.254 4.22107 27.2234 4.22107 23.2242C4.22107 19.2249 9.3464 16.1943 15.5431 16.1943C21.7402 16.1943 26.8656 19.2249 26.8656 23.2242Z" fill="black"/>
<path d="M11.5016 28.5793C12.6502 23.978 15.8264 20.1626 20.0539 18.2609C20.4434 18.0857 20.6207 17.6196 20.4501 17.2197C20.2794 16.8199 19.8253 16.6379 19.4358 16.8131C14.776 18.9092 11.2765 23.113 10.0099 28.1869C9.90432 28.6097 10.1527 29.0403 10.5646 29.1487C10.9765 29.2571 11.396 29.0021 11.5016 28.5793Z" fill="black"/>
<path d="M14.7217 20.5254C11.8068 19.5855 8.68431 19.489 5.71908 20.2444C5.30636 20.3495 5.05481 20.7782 5.15726 21.2018C5.2597 21.6255 5.67727 21.8837 6.08999 21.7786C8.78097 21.093 11.6154 21.1806 14.2603 22.0334C14.6659 22.1642 15.0981 21.9327 15.2255 21.5162C15.3529 21.0998 15.1274 20.6562 14.7217 20.5254H14.7217Z" fill="black"/>
</svg>
