<svg width="15" height="15" viewBox="0 0 15 15" fill="none" xmlns="http://www.w3.org/2000/svg">
<path d="M0.232611 14.7646L0.235366 14.7673C0.308424 14.8409 0.395309 14.8994 0.491025 14.9393C0.586741 14.9792 0.6894 14.9998 0.7931 14.9998C0.880358 14.9998 0.967014 14.9854 1.04961 14.9573L5.54664 13.4317L14.1761 4.80225C14.7037 4.27466 15 3.55911 15 2.81302C15 2.06693 14.7036 1.35141 14.176 0.823864C13.6484 0.29632 12.9328 -3.26611e-05 12.1867 2.69986e-09C11.4406 3.26665e-05 10.7251 0.296448 10.1976 0.824038L1.56808 9.45354L0.0426983 13.9504C-0.00535107 14.0903 -0.0130206 14.2408 0.020569 14.3848C0.0541587 14.5288 0.127648 14.6604 0.232611 14.7646ZM10.9142 1.54059C11.2522 1.2052 11.7092 1.0174 12.1854 1.01832C12.6615 1.01923 13.1179 1.20878 13.4546 1.54547C13.7912 1.88215 13.9808 2.33852 13.9817 2.81465C13.9826 3.29079 13.7948 3.74787 13.4594 4.08583L12.3246 5.22062L9.77934 2.67537L10.9142 1.54059ZM2.45193 10.0028L9.06279 3.39192L11.608 5.93717L4.99714 12.548L1.14525 13.8547L2.45193 10.0028Z" fill="black"/>
</svg>
